<svg width="1014" height="400" viewBox="0 0 1014 400" fill="none" xmlns="http://www.w3.org/2000/svg">
<path d="M178.784 165.743C178.784 181.483 165.823 194.445 150.083 194.445C134.343 194.445 121.381 181.483 121.381 165.743C121.381 150.004 134.343 137.042 150.083 137.042C165.823 137.042 178.784 150.004 178.784 165.743ZM150.083 205.555C134.343 205.555 121.381 218.517 121.381 234.257C121.381 249.996 134.343 262.958 150.083 262.958C165.823 262.958 178.784 249.996 178.784 234.257C178.784 218.517 165.823 205.555 150.083 205.555ZM323.218 200C323.218 276.846 261.186 338.878 184.34 338.878C107.494 338.878 45.4614 276.846 45.4614 200C45.4614 123.154 107.494 61.1218 184.34 61.1218C261.186 61.1218 323.218 123.154 323.218 200ZM286.184 200C286.184 143.523 240.817 98.156 184.34 98.156C127.862 98.156 82.4956 143.523 82.4956 200C82.4956 256.477 127.862 301.844 184.34 301.844C240.817 301.844 286.184 256.477 286.184 200ZM218.596 205.555C202.857 205.555 189.895 218.517 189.895 234.257C189.895 249.996 202.857 262.958 218.596 262.958C234.336 262.958 247.298 249.996 247.298 234.257C247.298 218.517 234.336 205.555 218.596 205.555ZM218.596 137.042C202.857 137.042 189.895 150.004 189.895 165.743C189.895 181.483 202.857 194.445 218.596 194.445C234.336 194.445 247.298 181.483 247.298 165.743C247.298 150.004 234.336 137.042 218.596 137.042ZM696.337 115.747C697.263 115.747 698.189 116.673 699.115 117.599V147.226C699.115 149.078 697.263 150.004 696.337 150.004H647.267C645.415 150.004 644.489 148.152 644.489 147.226V118.525C644.489 116.673 646.341 115.747 647.267 115.747H696.337ZM695.411 157.411H600.974C600.048 157.411 598.197 158.337 598.197 160.188L586.16 206.481L585.235 209.259L570.421 160.188C570.421 159.262 568.569 157.411 567.643 157.411H530.609C529.683 157.411 527.832 158.337 527.832 160.188L513.944 206.481L513.018 209.259L512.092 206.481L506.537 183.335L500.982 160.188C500.982 159.262 499.13 157.411 498.204 157.411H424.136V117.599C424.136 116.673 422.284 114.821 420.432 115.747L374.14 130.561C372.288 130.561 371.362 131.487 371.362 133.338V158.337H359.326C358.4 158.337 356.549 159.262 356.549 161.114V196.297C356.549 197.222 357.474 199.074 359.326 199.074H371.362V242.589C371.362 273.143 388.028 287.03 418.581 287.03C431.543 287.03 443.579 284.253 451.912 279.623V242.589C451.912 240.738 450.06 239.812 449.134 240.738C444.505 242.589 439.875 243.515 436.172 243.515C427.839 243.515 423.21 239.812 423.21 230.553V199.074H450.06C450.986 199.074 452.837 198.148 452.837 196.297V166.669L488.02 283.327C488.02 284.253 489.872 286.104 490.797 286.104H529.683C530.609 286.104 532.461 285.179 532.461 283.327L549.126 231.479L557.459 258.329L564.866 283.327C564.866 284.253 566.718 286.104 567.643 286.104H606.529C607.455 286.104 609.307 285.179 609.307 283.327L644.489 166.669V283.327C644.489 284.253 645.415 286.104 647.267 286.104H694.485C695.411 286.104 697.263 285.179 697.263 283.327V160.188C697.263 159.262 696.337 157.411 695.411 157.411ZM757.444 115.747H710.225C709.299 115.747 707.447 116.673 707.447 118.525V282.401C707.447 283.327 708.373 285.179 710.225 285.179H757.444C758.369 285.179 760.221 284.253 760.221 282.401V117.599C760.221 116.673 759.295 115.747 757.444 115.747ZM820.402 115.747H771.331C770.406 115.747 768.554 116.673 768.554 118.525V147.226C768.554 148.152 769.48 150.004 771.331 150.004H820.402C821.327 150.004 823.179 149.078 823.179 147.226V117.599C823.179 116.673 822.253 115.747 820.402 115.747ZM819.476 157.411H772.257C771.331 157.411 769.48 158.337 769.48 160.188V281.475C769.48 282.401 770.405 284.253 772.257 284.253H819.476C820.402 284.253 822.253 283.327 822.253 281.475V160.188C822.253 159.262 821.327 157.411 819.476 157.411ZM968.538 220.369C968.538 255.551 938.911 286.104 897.248 286.104C856.51 286.104 826.883 255.551 826.883 220.369C826.883 185.186 856.51 154.633 898.173 154.633C938.911 154.633 968.538 185.186 968.538 220.369ZM918.542 221.295C918.542 208.333 909.284 198.148 898.173 199.074C886.137 199.074 877.805 209.259 877.805 221.295C877.805 233.331 887.063 243.515 898.173 243.515C910.21 243.515 918.542 233.331 918.542 221.295Z" fill="#F22F46"/>
</svg>
